 <!DOCTYPE svg PUBLIC "-//W3C//DTD SVG 1.1//EN" "http://www.w3.org/Graphics/SVG/1.1/DTD/svg11.dtd">
<svg xmlns="http://www.w3.org/2000/svg" width="865.76" height="682.89" viewBox="0 0 865.76 682.89">
<defs>
<style xmlns="http://www.w3.org/1999/xhtml">*, ::after, ::before { box-sizing: border-box; }
img, svg { vertical-align: middle; }
</style>
<style xmlns="http://www.w3.org/1999/xhtml">*, body, html { -webkit-font-smoothing: antialiased; }
img, svg { max-width: 100%; }
</style>
</defs>
<path d="M832.11,266.65,690.94,639.25H172.78a41.26,41.26,0,0,1-40.33-32.56l-83-383.51A45.38,45.38,0,0,1,77.9,171.11L346,70.44l9.46-3.56,10.81-4.06,127-47.7,4.05-1.51,29-10.9A42.58,42.58,0,0,1,568,9.44L642.6,69.7,651,76.45l.38.31L673,94.22,816.87,210.4A49.67,49.67,0,0,1,832.11,266.65Z" fill="#0071f2" data-primary="true"/>
<path d="M832.11,266.65,690.94,639.25H172.78a41.26,41.26,0,0,1-40.33-32.56l-83-383.51A45.38,45.38,0,0,1,77.9,171.11L346,70.44l9.46-3.56,10.81-4.06,127-47.7,4.05-1.51,29-10.9A42.58,42.58,0,0,1,568,9.44L642.6,69.7,651,76.45l.38.31L673,94.22,816.87,210.4A49.67,49.67,0,0,1,832.11,266.65Z" fill="#fff" opacity="0.7"/>
<polygon points="626 610 629.57 632.27 667.54 632.27 661.96 610 626 610" fill="#0071f2" data-primary="true"/>
<polygon points="626 610 629.57 632.27 667.54 632.27 661.96 610 626 610" opacity="0.2"/>
<g opacity="0.2">
<path d="M631.11,621.63a.5.5,0,0,1-.49-.42L629,610.07a.5.5,0,1,1,1-.15l1.64,11.14a.51.51,0,0,1-.42.57Z"/>
</g>
<path d="M728.08,610H512.25a11,11,0,0,1-11-12.18l13.68-130a11,11,0,0,1,11-9.87H742.35a10.48,10.48,0,0,1,10.43,11.59L739,600.12A11,11,0,0,1,728.08,610Z" fill="#0071f2" data-primary="true"/>
<rect x="145" y="455.27" width="132" height="184" fill="#2f2e41" data-secondary="true"/>
<path d="M239,449.27h39.61a6.39,6.39,0,0,1,6.39,6.39v14.71a6.39,6.39,0,0,1-6.39,6.39H239a0,0,0,0,1,0,0v-27.5A0,0,0,0,1,239,449.27Z" fill="#0071f2" data-primary="true"/>
<path d="M239,449.27h39.61a6.39,6.39,0,0,1,6.39,6.39v14.71a6.39,6.39,0,0,1-6.39,6.39H239a0,0,0,0,1,0,0v-27.5A0,0,0,0,1,239,449.27Z" fill="#fff" opacity="0.4"/>
<path d="M243.11,449.27H137.89a4.89,4.89,0,0,0-4.89,4.89v17.72a4.89,4.89,0,0,0,4.89,4.89H176v-2.43a4.07,4.07,0,0,1,4.07-4.07h39.86a4.07,4.07,0,0,1,4.07,4.07v2.43h19.11a4.89,4.89,0,0,0,4.89-4.89V454.16A4.89,4.89,0,0,0,243.11,449.27Z" fill="#0071f2" data-primary="true"/>
<path d="M243.11,449.27H137.89a4.89,4.89,0,0,0-4.89,4.89v17.72a4.89,4.89,0,0,0,4.89,4.89H176v-2.43a4.07,4.07,0,0,1,4.07-4.07h39.86a4.07,4.07,0,0,1,4.07,4.07v2.43h19.11a4.89,4.89,0,0,0,4.89-4.89V454.16A4.89,4.89,0,0,0,243.11,449.27Z" fill="#fff" opacity="0.3"/>
<path d="M159,461.27h-4.18a3,3,0,1,0,0,2H159a1,1,0,0,0,0-2Z" fill="#2f2e41" data-secondary="true"/>
<circle cx="143" cy="462.27" r="3" fill="#2f2e41" data-secondary="true"/>
<circle cx="143" cy="462.27" r="2" opacity="0.2"/>
<circle cx="152" cy="462.27" r="2" fill="#fff"/>
<path d="M237,459.27a2,2,0,0,1-2,2H170a2,2,0,0,1-2-2,2,2,0,0,1,2-2h65A2,2,0,0,1,237,459.27Z" fill="#fff"/>
<path d="M237,459.27a2,2,0,0,1-2,2H184v-4h51A2,2,0,0,1,237,459.27Z" fill="#0071f2" data-primary="true"/>
<path d="M237,465.27a2,2,0,0,1-2,2H170a2,2,0,0,1-2-2,2,2,0,0,1,2-2h65A2,2,0,0,1,237,465.27Z" fill="#fff"/>
<path d="M237,465.27a2,2,0,0,1-2,2H176v-4h59A2,2,0,0,1,237,465.27Z" fill="#2f2e41" data-secondary="true"/>
<path d="M239,481.27h39.61a6.39,6.39,0,0,1,6.39,6.39v14.71a6.39,6.39,0,0,1-6.39,6.39H239a0,0,0,0,1,0,0v-27.5A0,0,0,0,1,239,481.27Z" fill="#0071f2" data-primary="true"/>
<path d="M239,481.27h39.61a6.39,6.39,0,0,1,6.39,6.39v14.71a6.39,6.39,0,0,1-6.39,6.39H239a0,0,0,0,1,0,0v-27.5A0,0,0,0,1,239,481.27Z" fill="#fff" opacity="0.4"/>
<path d="M243.11,481.27H137.89a4.89,4.89,0,0,0-4.89,4.89v17.72a4.89,4.89,0,0,0,4.89,4.89H176v-2.43a4.07,4.07,0,0,1,4.07-4.07h39.86a4.07,4.07,0,0,1,4.07,4.07v2.43h19.11a4.89,4.89,0,0,0,4.89-4.89V486.16A4.89,4.89,0,0,0,243.11,481.27Z" fill="#0071f2" data-primary="true"/>
<path d="M243.11,481.27H137.89a4.89,4.89,0,0,0-4.89,4.89v17.72a4.89,4.89,0,0,0,4.89,4.89H176v-2.43a4.07,4.07,0,0,1,4.07-4.07h39.86a4.07,4.07,0,0,1,4.07,4.07v2.43h19.11a4.89,4.89,0,0,0,4.89-4.89V486.16A4.89,4.89,0,0,0,243.11,481.27Z" fill="#fff" opacity="0.3"/>
<path d="M159,493.27h-4.18a3,3,0,1,0,0,2H159a1,1,0,0,0,0-2Z" fill="#2f2e41" data-secondary="true"/>
<circle cx="143" cy="494.27" r="3" fill="#2f2e41" data-secondary="true"/>
<circle cx="143" cy="494.27" r="2" opacity="0.2"/>
<circle cx="152" cy="494.27" r="2" fill="#fff"/>
<path d="M237,491.27a2,2,0,0,1-2,2H170a2,2,0,0,1-2-2,2,2,0,0,1,2-2h65A2,2,0,0,1,237,491.27Z" fill="#fff"/>
<path d="M237,491.27a2,2,0,0,1-2,2H184v-4h51A2,2,0,0,1,237,491.27Z" fill="#0071f2" data-primary="true"/>
<path d="M237,497.27a2,2,0,0,1-2,2H170a2,2,0,0,1-2-2,2,2,0,0,1,2-2h65A2,2,0,0,1,237,497.27Z" fill="#fff"/>
<path d="M237,497.27a2,2,0,0,1-2,2H176v-4h59A2,2,0,0,1,237,497.27Z" fill="#2f2e41" data-secondary="true"/>
<path d="M239,512.27h39.61a6.39,6.39,0,0,1,6.39,6.39v14.71a6.39,6.39,0,0,1-6.39,6.39H239a0,0,0,0,1,0,0v-27.5A0,0,0,0,1,239,512.27Z" fill="#0071f2" data-primary="true"/>
<path d="M239,512.27h39.61a6.39,6.39,0,0,1,6.39,6.39v14.71a6.39,6.39,0,0,1-6.39,6.39H239a0,0,0,0,1,0,0v-27.5A0,0,0,0,1,239,512.27Z" fill="#fff" opacity="0.4"/>
<path d="M243.11,512.27H137.89a4.89,4.89,0,0,0-4.89,4.89v17.72a4.89,4.89,0,0,0,4.89,4.89H176v-2.43a4.07,4.07,0,0,1,4.07-4.07h39.86a4.07,4.07,0,0,1,4.07,4.07v2.43h19.11a4.89,4.89,0,0,0,4.89-4.89V517.16A4.89,4.89,0,0,0,243.11,512.27Z" fill="#0071f2" data-primary="true"/>
<path d="M243.11,512.27H137.89a4.89,4.89,0,0,0-4.89,4.89v17.72a4.89,4.89,0,0,0,4.89,4.89H176v-2.43a4.07,4.07,0,0,1,4.07-4.07h39.86a4.07,4.07,0,0,1,4.07,4.07v2.43h19.11a4.89,4.89,0,0,0,4.89-4.89V517.16A4.89,4.89,0,0,0,243.11,512.27Z" fill="#fff" opacity="0.3"/>
<path d="M159,524.27h-4.18a3,3,0,1,0,0,2H159a1,1,0,0,0,0-2Z" fill="#2f2e41" data-secondary="true"/>
<circle cx="143" cy="525.27" r="3" fill="#2f2e41" data-secondary="true"/>
<circle cx="143" cy="525.27" r="2" opacity="0.2"/>
<circle cx="152" cy="525.27" r="2" fill="#fff"/>
<path d="M237,522.27a2,2,0,0,1-2,2H170a2,2,0,0,1-2-2,2,2,0,0,1,2-2h65A2,2,0,0,1,237,522.27Z" fill="#fff"/>
<path d="M237,522.27a2,2,0,0,1-2,2H184v-4h51A2,2,0,0,1,237,522.27Z" fill="#0071f2" data-primary="true"/>
<path d="M237,528.27a2,2,0,0,1-2,2H170a2,2,0,0,1-2-2,2,2,0,0,1,2-2h65A2,2,0,0,1,237,528.27Z" fill="#fff"/>
<path d="M237,528.27a2,2,0,0,1-2,2H176v-4h59A2,2,0,0,1,237,528.27Z" fill="#2f2e41" data-secondary="true"/>
<path d="M239,544.27h39.61a6.39,6.39,0,0,1,6.39,6.39v14.71a6.39,6.39,0,0,1-6.39,6.39H239a0,0,0,0,1,0,0v-27.5A0,0,0,0,1,239,544.27Z" fill="#0071f2" data-primary="true"/>
<path d="M239,544.27h39.61a6.39,6.39,0,0,1,6.39,6.39v14.71a6.39,6.39,0,0,1-6.39,6.39H239a0,0,0,0,1,0,0v-27.5A0,0,0,0,1,239,544.27Z" fill="#fff" opacity="0.4"/>
<path d="M243.11,544.27H137.89a4.89,4.89,0,0,0-4.89,4.89v17.72a4.89,4.89,0,0,0,4.89,4.89H176v-2.43a4.07,4.07,0,0,1,4.07-4.07h39.86a4.07,4.07,0,0,1,4.07,4.07v2.43h19.11a4.89,4.89,0,0,0,4.89-4.89V549.16A4.89,4.89,0,0,0,243.11,544.27Z" fill="#0071f2" data-primary="true"/>
<path d="M243.11,544.27H137.89a4.89,4.89,0,0,0-4.89,4.89v17.72a4.89,4.89,0,0,0,4.89,4.89H176v-2.43a4.07,4.07,0,0,1,4.07-4.07h39.86a4.07,4.07,0,0,1,4.07,4.07v2.43h19.11a4.89,4.89,0,0,0,4.89-4.89V549.16A4.89,4.89,0,0,0,243.11,544.27Z" fill="#fff" opacity="0.3"/>
<path d="M159,556.27h-4.18a3,3,0,1,0,0,2H159a1,1,0,0,0,0-2Z" fill="#2f2e41" data-secondary="true"/>
<circle cx="143" cy="557.27" r="3" fill="#2f2e41" data-secondary="true"/>
<circle cx="143" cy="557.27" r="2" opacity="0.2"/>
<circle cx="152" cy="557.27" r="2" fill="#fff"/>
<path d="M237,554.27a2,2,0,0,1-2,2H170a2,2,0,0,1-2-2,2,2,0,0,1,2-2h65A2,2,0,0,1,237,554.27Z" fill="#fff"/>
<path d="M237,554.27a2,2,0,0,1-2,2H184v-4h51A2,2,0,0,1,237,554.27Z" fill="#0071f2" data-primary="true"/>
<path d="M237,560.27a2,2,0,0,1-2,2H170a2,2,0,0,1-2-2,2,2,0,0,1,2-2h65A2,2,0,0,1,237,560.27Z" fill="#fff"/>
<path d="M237,560.27a2,2,0,0,1-2,2H176v-4h59A2,2,0,0,1,237,560.27Z" fill="#2f2e41" data-secondary="true"/>
<path d="M239,576.27h39.61a6.39,6.39,0,0,1,6.39,6.39v14.71a6.39,6.39,0,0,1-6.39,6.39H239a0,0,0,0,1,0,0v-27.5A0,0,0,0,1,239,576.27Z" fill="#0071f2" data-primary="true"/>
<path d="M239,576.27h39.61a6.39,6.39,0,0,1,6.39,6.39v14.71a6.39,6.39,0,0,1-6.39,6.39H239a0,0,0,0,1,0,0v-27.5A0,0,0,0,1,239,576.27Z" fill="#fff" opacity="0.4"/>
<path d="M243.11,576.27H137.89a4.89,4.89,0,0,0-4.89,4.89v17.72a4.89,4.89,0,0,0,4.89,4.89H176v-2.43a4.07,4.07,0,0,1,4.07-4.07h39.86a4.07,4.07,0,0,1,4.07,4.07v2.43h19.11a4.89,4.89,0,0,0,4.89-4.89V581.16A4.89,4.89,0,0,0,243.11,576.27Z" fill="#0071f2" data-primary="true"/>
<path d="M243.11,576.27H137.89a4.89,4.89,0,0,0-4.89,4.89v17.72a4.89,4.89,0,0,0,4.89,4.89H176v-2.43a4.07,4.07,0,0,1,4.07-4.07h39.86a4.07,4.07,0,0,1,4.07,4.07v2.43h19.11a4.89,4.89,0,0,0,4.89-4.89V581.16A4.89,4.89,0,0,0,243.11,576.27Z" fill="#fff" opacity="0.3"/>
<path d="M159,588.27h-4.18a3,3,0,1,0,0,2H159a1,1,0,0,0,0-2Z" fill="#2f2e41" data-secondary="true"/>
<circle cx="143" cy="589.27" r="3" fill="#2f2e41" data-secondary="true"/>
<circle cx="143" cy="589.27" r="2" opacity="0.2"/>
<circle cx="152" cy="589.27" r="2" fill="#fff"/>
<path d="M237,586.27a2,2,0,0,1-2,2H170a2,2,0,0,1-2-2,2,2,0,0,1,2-2h65A2,2,0,0,1,237,586.27Z" fill="#fff"/>
<path d="M237,586.27a2,2,0,0,1-2,2H184v-4h51A2,2,0,0,1,237,586.27Z" fill="#0071f2" data-primary="true"/>
<path d="M237,592.27a2,2,0,0,1-2,2H170a2,2,0,0,1-2-2,2,2,0,0,1,2-2h65A2,2,0,0,1,237,592.27Z" fill="#fff"/>
<path d="M237,592.27a2,2,0,0,1-2,2H176v-4h59A2,2,0,0,1,237,592.27Z" fill="#2f2e41" data-secondary="true"/>
<path d="M239,608.27h39.61a6.39,6.39,0,0,1,6.39,6.39v14.71a6.39,6.39,0,0,1-6.39,6.39H239a0,0,0,0,1,0,0v-27.5A0,0,0,0,1,239,608.27Z" fill="#0071f2" data-primary="true"/>
<path d="M239,608.27h39.61a6.39,6.39,0,0,1,6.39,6.39v14.71a6.39,6.39,0,0,1-6.39,6.39H239a0,0,0,0,1,0,0v-27.5A0,0,0,0,1,239,608.27Z" fill="#fff" opacity="0.4"/>
<path d="M243.11,608.27H137.89a4.89,4.89,0,0,0-4.89,4.89v17.72a4.89,4.89,0,0,0,4.89,4.89H176v-2.43a4.07,4.07,0,0,1,4.07-4.07h39.86a4.07,4.07,0,0,1,4.07,4.07v2.43h19.11a4.89,4.89,0,0,0,4.89-4.89V613.16A4.89,4.89,0,0,0,243.11,608.27Z" fill="#0071f2" data-primary="true"/>
<path d="M243.11,608.27H137.89a4.89,4.89,0,0,0-4.89,4.89v17.72a4.89,4.89,0,0,0,4.89,4.89H176v-2.43a4.07,4.07,0,0,1,4.07-4.07h39.86a4.07,4.07,0,0,1,4.07,4.07v2.43h19.11a4.89,4.89,0,0,0,4.89-4.89V613.16A4.89,4.89,0,0,0,243.11,608.27Z" fill="#fff" opacity="0.3"/>
<path d="M159,620.27h-4.18a3,3,0,1,0,0,2H159a1,1,0,0,0,0-2Z" fill="#2f2e41" data-secondary="true"/>
<circle cx="143" cy="621.27" r="3" fill="#2f2e41" data-secondary="true"/>
<circle cx="143" cy="621.27" r="2" opacity="0.2"/>
<circle cx="152" cy="621.27" r="2" fill="#fff"/>
<path d="M237,618.27a2,2,0,0,1-2,2H170a2,2,0,0,1-2-2,2,2,0,0,1,2-2h65A2,2,0,0,1,237,618.27Z" fill="#fff"/>
<path d="M237,618.27a2,2,0,0,1-2,2H184v-4h51A2,2,0,0,1,237,618.27Z" fill="#0071f2" data-primary="true"/>
<path d="M237,624.27a2,2,0,0,1-2,2H170a2,2,0,0,1-2-2,2,2,0,0,1,2-2h65A2,2,0,0,1,237,624.27Z" fill="#fff"/>
<path d="M237,624.27a2,2,0,0,1-2,2H176v-4h59A2,2,0,0,1,237,624.27Z" fill="#2f2e41" data-secondary="true"/>
<path d="M505,594l13.43-124.37C519,464.72,523.54,461,529,461H736.92c6,0,10.65,4.72,10,10.14L735,594Z" fill="#ebebeb"/>
<path d="M567.53,525a3.49,3.49,0,0,1-2.41-6c9.59-9.13,35-30.29,63.89-29.46,2.34-.05,28.77.08,58.67,29.26a3.5,3.5,0,1,1-4.89,5c-28.35-27.67-53.42-27.26-53.67-27.28h-.22c-27-.76-52,20.88-59,27.54A3.48,3.48,0,0,1,567.53,525Z" fill="#0071f2" data-primary="true"/>
<path d="M590.44,546.79a3.49,3.49,0,0,1-2.7-5.71c3.63-4.44,17-19,36.43-20,14.05-.75,28.05,5.65,41.59,19a3.5,3.5,0,0,1-4.91,5c-12.09-11.92-24.3-17.65-36.31-17-16.57.88-28.21,13.6-31.39,17.47A3.46,3.46,0,0,1,590.44,546.79Z" fill="#0071f2" data-primary="true"/>
<path d="M641.41,564.55a3.48,3.48,0,0,1-2.75-1.34c-3-3.79-6.26-5.84-9.72-6.08-5.83-.4-11.36,4.26-13.47,6.29a3.5,3.5,0,1,1-4.85-5c3.45-3.32,10.48-8.82,18.81-8.22,5.51.38,10.47,3.32,14.73,8.74a3.5,3.5,0,0,1-.59,4.91A3.44,3.44,0,0,1,641.41,564.55Z" fill="#0071f2" data-primary="true"/>
<rect x="559.57" y="632.27" width="122" height="6" fill="#0071f2" data-primary="true"/>
<path d="M641.41,632.77H559.57a.5.5,0,0,1,0-1h81.84a.5.5,0,0,1,0,1Z" fill="#2f2e41" data-secondary="true"/>
<path d="M373.77,611.9l.22,23.51a2.79,2.79,0,0,0,2.79,2.8h35.45a1.27,1.27,0,0,0,.77-2.28l-16.64-12.77a3.55,3.55,0,0,1-1.38-2.81l.27-9.21Z" fill="#0071f2" data-primary="true"/>
<path d="M373.77,611.9l.22,23.51a2.79,2.79,0,0,0,2.79,2.8h35.45a1.27,1.27,0,0,0,.77-2.28l-16.64-12.77a3.55,3.55,0,0,1-1.38-2.81l.27-9.21Z" opacity="0.2"/>
<rect x="282" y="536.75" width="4" height="93.84" fill="#2e3135"/>
<path d="M397.55,611.14h-6.9L349,490.08s43.22-10.36,44.76,23.51Z" fill="#2f2e41" data-secondary="true"/>
<path d="M397.55,611.14h-6.9L349,490.08s43.22-10.36,44.76,23.51Z" opacity="0.2"/>
<path d="M272,484.07l56.51,1.24s5.37-5.37,9.21-48.34a37.48,37.48,0,0,1,8.44-6.14s-5.37-30.69-23.79-33l-27.62,1.54s-18.41-2.3-23,21.48l-10.34,49.88A11.09,11.09,0,0,0,272,484.07Z" fill="#0071f2" data-primary="true"/>
<path d="M275.56,433.14l13.81,33s6.91,17.53,23.79,16.44V485H295.5S280.16,474.57,275.56,433.14Z" opacity="0.2"/>
<path d="M303.65,413.1c5.2,3.56,13.82,8.44,18.63,1.91a16.61,16.61,0,0,0,1.62-2.59c-3,10.83-14.47,6.79-20.25.68Z" opacity="0.2"/>
<path d="M335.41,414c1.51,5.05,1.54,10.42,1.8,15.64.12,3.79.05,8-.08,11.81-.08,1.31-.12,2.62-.24,3.93-.36-4.53-.51-11.1-.68-15.71s-.07-11.17-.8-15.67Z" opacity="0.2"/>
<path d="M335.41,457.58l18.49,9.47,21.69,5.68s3.77-1.84,6.73,0l2.19,2.6h3.18L385.28,470l4.6,4.61,3.84-6.91s-4.61-6.14-10-6.14a27.45,27.45,0,0,1-8.44-3.06l-25.54-16.88-3.61-10.75a36.88,36.88,0,0,0-8.44,6.14S336.17,451.34,335.41,457.58Z" fill="#f7a48b"/>
<path d="M349.76,441.58a6.84,6.84,0,0,1-3.61,3.75,6.84,6.84,0,0,1,3.61-3.75Z" fill="#f48e76"/>
<path d="M301.65,379.43V398a7.21,7.21,0,0,0,1.24,4.08c2,2.94,6.32,8.09,11.8,8.09,0,0,6.14,1.53,7.67-6.91V392.9Z" fill="#f9b499"/>
<path d="M335.41,382.5a26.53,26.53,0,0,1-3.27,9.12,10.16,10.16,0,0,1-10.94,4.53c-10.19-2.31-17.55-14.42-17.55-14.42l.21-3.7,3.79-2.4s8.57-1.57,10.11-12.31c0,0,11.06,8.5,18.57,7.16A74.89,74.89,0,0,1,335.41,382.5Z" fill="#f9b499"/>
<path d="M322.36,403.21v-6.87A23.87,23.87,0,0,1,309,388.5S311.62,399.38,322.36,403.21Z" fill="#f7a48b"/>
<path d="M272,484.07,268.66,506s-3.07,21.49,16.87,22.25h46.7l27,85.94,34.53-1.65-20.72-95s-1.53-22.25-21.48-26.85l-23-5.37Z" fill="#2f2e41" data-secondary="true"/>
<polygon points="332.23 528.27 342.42 528.27 336.15 540.78 332.23 528.27" opacity="0.2"/>
<path d="M362.48,614.21v21.2a2.79,2.79,0,0,0,2.79,2.8h35.45a1.27,1.27,0,0,0,.77-2.28l-16.64-12.77a3.55,3.55,0,0,1-1.38-2.81v-7.3Z" fill="#0071f2" data-primary="true"/>
<rect x="251.01" y="528.27" width="65.98" height="12.28" rx="6.14" fill="#3f4347"/>
<path d="M272.49,628h23.78a10,10,0,0,1,10,10v0a0,0,0,0,1,0,0H262.52a0,0,0,0,1,0,0v0A10,10,0,0,1,272.49,628Z" fill="#3f4347"/>
<polygon points="440.86 639.04 349.37 489.97 355.52 492.7 444.26 636.94 440.86 639.04" fill="#2e3135"/>
<polygon points="351.46 639.27 348.07 637.15 438.29 492.69 444.37 489.97 351.46 639.27" fill="#2e3135"/>
<polygon points="415.97 425.46 386.09 481.47 449.22 481.47 479.37 425.46 415.97 425.46" fill="#0071f2" data-primary="true"/>
<polygon points="415.97 425.46 386.09 481.47 449.22 481.47 479.37 425.46 415.97 425.46" fill="#fff" opacity="0.3"/>
<path d="M362.94,481.47v-5.16a1,1,0,0,1,1-1h25.46l-3.28,6.14Z" fill="#2f2e41" data-secondary="true"/>
<path d="M339.73,368.54a4,4,0,0,1-1.65,1.41,7,7,0,0,1-1.75.53c-7.51,1.34-18.57-7.16-18.57-7.16-1.54,10.74-10.11,12.31-10.11,12.31l-3.79,2.4-2.21,1.4v10h-12c-2.06,0-3.3-6.14-3.3-6.14h-1.53L284,389.4H279.4c-3.84-4.6-4.07-12.66-4.07-12.66,2.07-15.73,14-16.49,14-16.49a10.26,10.26,0,0,1,2.3-8.44c7.67-8.44,17.65-.77,17.65-.77,13.81-5.37,26.85,5.37,26.85,5.37C343.23,361.71,341.11,366.56,339.73,368.54Z" fill="#2f2e41" data-secondary="true"/>
<path d="M297.81,360.58s5.37-8.77,11.51-9.54l-2.27-1.38S295.51,352.47,297.81,360.58Z" fill="#0071f2" data-primary="true"/>
<circle cx="302.8" cy="376.74" r="4.99" fill="#f9b499"/>
<path d="M281.71,447.83l7.66,18.3s6.91,17.53,23.79,16.44,39.34-1.1,39.34-1.1l6.69-3.83s10.74,5.37,11.51.76c0,0,2.3,1.54,3.83.77,0,0,1.54-.77,0-2a2.89,2.89,0,0,0,2.64.29A1.6,1.6,0,0,0,378,475a14.68,14.68,0,0,0-4.24-3.51l-6.14-4.61s-6.91-4.6-16.11,1.54c0,0-26.86-6.14-36.83-8.44l-12.28-22.25Z" fill="#f9b499"/>
<path d="M370.7,478.4a11.59,11.59,0,0,1-6.14-3.07,11.74,11.74,0,0,1,6.14,3.07Z" fill="#f7a48b"/>
<path d="M374.53,477.17a19.54,19.54,0,0,1-6.9-5.64,19.56,19.56,0,0,1,6.9,5.64Z" fill="#f7a48b"/>
<path d="M293.21,415.49c3.41,7.18,6.76,15.16,9.85,22.5-7,3.3-14.24,6.74-21.36,9.72,6.63-3.62,13.7-7.09,20.5-10.42l-.24.64c-2.95-7.22-6.15-15.1-8.75-22.44Z" fill="#0071f2" data-primary="true"/>
<path d="M293.21,415.49c3.41,7.18,6.76,15.16,9.85,22.5-7,3.3-14.24,6.74-21.36,9.72,6.63-3.62,13.7-7.09,20.5-10.42l-.24.64c-2.95-7.22-6.15-15.1-8.75-22.44Z" opacity="0.2"/>
<rect x="313.16" y="481.47" width="164.96" height="12.28" fill="#3f4347"/>
<rect x="638.22" y="451" width="1" height="6" fill="#2f2e41" data-secondary="true"/>
<path d="M639.22,439.31h-1V427.63h1Zm0-23.36h-1V404.27h1Zm0-23.36h-1V380.91h1Zm0-23.37h-1V357.54h1Zm0-23.36h-1V334.18h1Z" fill="#2f2e41" data-secondary="true"/>
<polygon points="639.22 322.5 638.22 322.5 638.22 317 632.72 317 632.72 316 639.22 316 639.22 322.5" fill="#2f2e41" data-secondary="true"/>
<path d="M620.23,317H607.74v-1h12.49Zm-25,0H582.76v-1h12.49Zm-25,0H557.78v-1h12.49Z" fill="#2f2e41" data-secondary="true"/>
<polygon points="545.29 317 538.79 317 538.79 310.5 539.79 310.5 539.79 316 545.29 316 545.29 317" fill="#2f2e41" data-secondary="true"/>
<path d="M539.79,297.38h-1V284.26h1Zm0-26.24h-1V258h1Zm0-26.24h-1V231.78h1Zm0-26.24h-1V205.54h1Z" fill="#2f2e41" data-secondary="true"/>
<polygon points="539.79 192.43 538.79 192.43 538.79 186.93 533.29 186.93 533.29 185.93 539.79 185.93 539.79 192.43" fill="#2f2e41" data-secondary="true"/>
<path d="M146.59,389.85h-1l.06-12.13h1Zm.12-24.25h-1l.06-12.13h1Zm.12-24.26h-1l.06-12.13h1Zm.12-24.26h-1L146,305h1Zm.12-24.25h-1l.06-12.12h1Zm.12-24.26h-1l.06-12.13h1Zm.12-24.25h-1l.06-12.13h1Zm.12-24.26h-1l.06-12.13h1Zm1.92-23.73-.9-.45a18.28,18.28,0,0,1,8.87-8.42l.41.92A17.22,17.22,0,0,0,149.35,196.33Zm371.81-9.41H509v-1h12.13Zm-24.25,0H484.78v-1h12.13Zm-24.26,0H460.52v-1h12.13Zm-24.26,0H436.27v-1h12.12Zm-24.25,0H412v-1h12.13Zm-24.26,0H387.75v-1h12.13Zm-24.26,0H363.5v-1h12.12Zm-24.25,0H339.24v-1h12.13Zm-24.26,0H315v-1h12.13Zm-24.25,0H290.73v-1h12.13Zm-24.26,0H266.47v-1H278.6Zm-24.26,0H242.21v-1h12.13Zm-24.25,0H218v-1h12.13Zm-24.26,0H193.7v-1h12.13Zm-24.26,0H169.45v-1h12.12Z" fill="#2f2e41" data-secondary="true"/>
<polygon points="152 408.5 145.5 408.5 145.53 401.99 146.53 402 146.51 407.5 152 407.5 152 408.5" fill="#2f2e41" data-secondary="true"/>
<path d="M204,408.5H191v-1h13Zm-26,0H165v-1h13Z" fill="#2f2e41" data-secondary="true"/>
<polygon points="223.5 414 222.5 414 222.5 408.5 217 408.5 217 407.5 223.5 407.5 223.5 414" fill="#2f2e41" data-secondary="true"/>
<rect x="222.5" y="428" width="1" height="6" fill="#2f2e41" data-secondary="true"/>
<path d="M235,346.27H61c6-41,34-28,34-28,4-12,15.14-10.29,15.14-10.29a63.3,63.3,0,0,1,1-12.29A19.29,19.29,0,0,1,115,287.3a.11.11,0,0,0,0,0,18.25,18.25,0,0,1,13.43-7c17-.83,26.55,22,26.55,22a16.53,16.53,0,0,1,10.42-5.33,21.89,21.89,0,0,1,17,4.91c8.85,7.43,7.56,18.42,7.56,18.42,11,4,10,12,10,12C227,318.27,235,346.27,235,346.27Z" fill="#e6e6e6"/>
<path d="M242.67,346.27H235s-8-28-35-14c0,0,1-8-10-12,0,0,1.29-11-7.56-18.42a21.89,21.89,0,0,0-17-4.91A16.53,16.53,0,0,0,155,302.27s-9.53-22.86-26.55-22a18.25,18.25,0,0,0-13.43,7c.38-1,7.56-18.85,28-14,0,0,12,2,18,20,0,0,13.25-13,28.62,0,0,0,7.38,6,8.38,18,0,0,9,4,10,12C208,323.27,237.34,307.27,242.67,346.27Z" fill="#ccc"/>
<path d="M163.93,354.86l4.28,1.6,2.51-6.81L166.35,348a18,18,0,0,0-.76-8.07l4.45-2.06-3.4-6.61-4.74,2.19a19.79,19.79,0,0,0-5.06-4.16l1.9-5.11-7.09-2.65-2,5.31a19.3,19.3,0,0,0-7.12.3l-2.06-4.35-6.82,2.89,2.15,4.53a17.54,17.54,0,0,0-4.47,4.73L127,333.32l-2.51,6.81,4.29,1.6a17.89,17.89,0,0,0,.26,7l-5.2,2.41,3.4,6.61,4.92-2.28a19.47,19.47,0,0,0,5.17,4.89L135.57,365l7.09,2.65,1.66-4.48a19.45,19.45,0,0,0,7.17.08l1.94,4.07,6.81-2.89-1.85-3.89A17.83,17.83,0,0,0,163.93,354.86Zm-20.79,2.06a13,13,0,1,1,17.24-6.87A13.11,13.11,0,0,1,143.14,356.92Z" fill="#0071f2" data-primary="true"/>
<path d="M666.94,229.93H403.1c9.1-62.17,51.55-42.46,51.55-42.46,6.07-18.2,23-15.6,23-15.6a96.47,96.47,0,0,1,1.58-18.64A29.27,29.27,0,0,1,485,140.51a.14.14,0,0,0,0-.06,27.71,27.71,0,0,1,20.37-10.65c25.8-1.25,40.25,33.41,40.25,33.41a25.08,25.08,0,0,1,15.8-8.08,33.18,33.18,0,0,1,25.81,7.44c13.42,11.27,11.47,27.93,11.47,27.93,16.67,6.07,15.16,18.2,15.16,18.2C654.81,187.47,666.94,229.93,666.94,229.93Z" fill="#e6e6e6"/>
<path d="M678.57,229.93H666.94s-12.13-42.46-53.07-21.23c0,0,1.51-12.13-15.16-18.2,0,0,1.95-16.66-11.47-27.93a33.18,33.18,0,0,0-25.81-7.44,25.08,25.08,0,0,0-15.8,8.08s-14.45-34.66-40.25-33.41A27.71,27.71,0,0,0,485,140.45c.58-1.5,11.47-28.58,42.43-21.21,0,0,18.19,3,27.29,30.32,0,0,20.09-19.71,43.4,0,0,0,11.19,9.1,12.71,27.3,0,0,13.64,6.06,15.16,18.19C626,195.05,670.49,170.79,678.57,229.93Z" fill="#ccc"/>
<path d="M565.24,237.61l6.73,2.51,3.95-10.69-6.87-2.56a28.36,28.36,0,0,0-1.2-12.69l7-3.24-5.35-10.38L562.05,204a30.71,30.71,0,0,0-7.94-6.54l3-8-11.14-4.16-3.09,8.34a30.19,30.19,0,0,0-11.19.48l-3.24-6.84-10.72,4.54,3.38,7.12a28.15,28.15,0,0,0-7,7.43l-6.88-2.57-3.95,10.69L510,217a28.13,28.13,0,0,0,.41,10.94l-8.18,3.79,5.35,10.38,7.73-3.58a30.55,30.55,0,0,0,8.12,7.68l-2.71,7.33,11.14,4.16,2.6-7a30.59,30.59,0,0,0,11.28.11l3,6.41,10.71-4.54-2.91-6.13A27.79,27.79,0,0,0,565.24,237.61Zm-32.66,3.25a20.38,20.38,0,1,1,27.08-10.81A20.64,20.64,0,0,1,532.58,240.86Z" fill="#0071f2" data-primary="true"/>
<path d="M726,361H552c6-41,34-28,34-28,4-12,15.14-10.29,15.14-10.29a63.3,63.3,0,0,1,1-12.29A19.29,19.29,0,0,1,606,302l0,0a18.25,18.25,0,0,1,13.43-7c17-.83,26.55,22,26.55,22a16.53,16.53,0,0,1,10.42-5.33,21.89,21.89,0,0,1,17,4.91C682.29,324,681,335,681,335c11,4,10,12,10,12C718,333,726,361,726,361Z" fill="#e6e6e6"/>
<path d="M733.67,361H726s-8-28-35-14c0,0,1-8-10-12,0,0,1.29-11-7.56-18.42a21.89,21.89,0,0,0-17-4.91A16.53,16.53,0,0,0,646,317s-9.53-22.86-26.55-22A18.25,18.25,0,0,0,606,302c.38-1,7.56-18.85,28-14,0,0,12,2,18,20,0,0,13.25-13,28.62,0,0,0,7.38,6,8.38,18,0,0,9,4,10,12C699,338,728.34,322,733.67,361Z" fill="#ccc"/>
<path d="M652.93,364.86l4.28,1.6,2.51-6.81L655.35,358a18,18,0,0,0-.76-8.07l4.45-2.06-3.4-6.61-4.74,2.19a19.79,19.79,0,0,0-5.06-4.16l1.9-5.11-7.09-2.65-2,5.31a19.3,19.3,0,0,0-7.12.3l-2.06-4.35-6.82,2.89,2.15,4.53a17.54,17.54,0,0,0-4.47,4.73L616,343.32l-2.51,6.81,4.29,1.6a17.89,17.89,0,0,0,.26,7l-5.2,2.41,3.4,6.61,4.92-2.28a19.47,19.47,0,0,0,5.17,4.89L624.57,375l7.09,2.65,1.66-4.48a19.45,19.45,0,0,0,7.17.08l1.94,4.07,6.81-2.89-1.85-3.89A17.83,17.83,0,0,0,652.93,364.86Zm-20.79,2.06a13,13,0,1,1,17.24-6.87A13.11,13.11,0,0,1,632.14,366.92Z" fill="#0071f2" data-primary="true"/>
<path d="M513.35,606.45a8.92,8.92,0,0,1-8.87-9.84l13.09-126A11.14,11.14,0,0,1,528.7,460.5H674.15a.5.5,0,0,1,.5.5.51.51,0,0,1-.5.5H528.7a10.15,10.15,0,0,0-10.14,9.19l-13.09,126a7.92,7.92,0,0,0,7.91,8.73l214.62-1h0a.5.5,0,0,1,0,1l-214.62,1Z" fill="#2f2e41" data-secondary="true"/>
</svg>