 <!DOCTYPE svg PUBLIC "-//W3C//DTD SVG 1.1//EN" "http://www.w3.org/Graphics/SVG/1.1/DTD/svg11.dtd">
<svg xmlns="http://www.w3.org/2000/svg" width="865.76" height="682.89" viewBox="0 0 865.76 682.89">
<defs>
<style xmlns="http://www.w3.org/1999/xhtml">*, ::after, ::before { box-sizing: border-box; }
img, svg { vertical-align: middle; }
</style>
<style xmlns="http://www.w3.org/1999/xhtml">*, body, html { -webkit-font-smoothing: antialiased; }
img, svg { max-width: 100%; }
</style>
</defs>
<ellipse cx="457.57" cy="597.95" rx="39.46" ry="180.1" transform="translate(-149.94 1042.75) rotate(-88.79)" fill="#0071f2" data-primary="true"/>
<ellipse cx="457.57" cy="597.95" rx="39.46" ry="180.1" transform="translate(-149.94 1042.75) rotate(-88.79)" fill="#fff" opacity="0.7"/>
<path d="M137.8,419.74S50,336.9,98.25,226.91a189.15,189.15,0,0,1,62-76.45c60.36-44.07,213.1-131.27,442.87-97.59a171.46,171.46,0,0,1,69.2,26c33.72,22.12,69.47,62.76,54.26,132.39-5.37,24.61-4.16,50.28,4.7,73.86,8.78,23.37,25.4,52,56.36,82.95,0,0,66,63.71,1.79,118.85a117.08,117.08,0,0,1-47.39,24.38C662.06,531.78,338.57,599.77,137.8,419.74Z" fill="#0071f2" data-primary="true"/>
<path d="M137.8,419.74S50,336.9,98.25,226.91a189.15,189.15,0,0,1,62-76.45c60.36-44.07,213.1-131.27,442.87-97.59a171.46,171.46,0,0,1,69.2,26c33.72,22.12,69.47,62.76,54.26,132.39-5.37,24.61-4.16,50.28,4.7,73.86,8.78,23.37,25.4,52,56.36,82.95,0,0,66,63.71,1.79,118.85a117.08,117.08,0,0,1-47.39,24.38C662.06,531.78,338.57,599.77,137.8,419.74Z" fill="#fff" opacity="0.7"/>
<path d="M719.17,190.81a39.49,39.49,0,0,0-34,59.51L679.67,266l14.9-4.75a39.5,39.5,0,1,0,24.6-70.39Z" fill="#0071f2" data-primary="true"/>
<rect x="313.75" y="359.06" width="33.47" height="197.45" fill="#0071f2" data-primary="true"/>
<rect x="313.75" y="359.06" width="33.47" height="197.45" opacity="0.2"/>
<rect x="347.22" y="359.06" width="101.51" height="197.45" fill="#0071f2" data-primary="true"/>
<rect x="309.29" y="556.51" width="42.39" height="16.73" fill="#0071f2" data-primary="true"/>
<rect x="309.29" y="556.51" width="42.39" height="16.73" opacity="0.3"/>
<rect x="351.68" y="556.51" width="100.4" height="16.73" fill="#0071f2" data-primary="true"/>
<rect x="351.68" y="556.51" width="100.4" height="16.73" opacity="0.2"/>
<circle cx="397.98" cy="547.03" r="3.9" fill="#fff" opacity="0.4"/>
<rect x="357.26" y="484" width="81.43" height="53.55" fill="#fff" opacity="0.4"/>
<g opacity="0.4">
<rect x="423.33" y="484" width="1.12" height="53.55" fill="#fff"/>
</g>
<g opacity="0.4">
<rect x="364.51" y="491.81" width="1.12" height="26.95" fill="#fff"/>
</g>
<g opacity="0.4">
<rect x="372.32" y="491.81" width="1.12" height="26.95" fill="#fff"/>
</g>
<g opacity="0.4">
<rect x="379.01" y="491.81" width="1.12" height="26.95" fill="#fff"/>
</g>
<g opacity="0.4">
<rect x="386.82" y="491.81" width="1.12" height="26.95" fill="#fff"/>
</g>
<g opacity="0.4">
<rect x="393.51" y="491.81" width="1.12" height="26.95" fill="#fff"/>
</g>
<g opacity="0.4">
<rect x="401.32" y="491.81" width="1.12" height="26.95" fill="#fff"/>
</g>
<g opacity="0.4">
<rect x="408.02" y="491.81" width="1.12" height="26.95" fill="#fff"/>
</g>
<g opacity="0.4">
<rect x="415.82" y="491.81" width="1.12" height="26.95" fill="#fff"/>
</g>
<rect x="365.07" y="524.16" width="52.43" height="6.69" fill="#fff" opacity="0.4"/>
<circle cx="431.44" cy="510.22" r="2.79" fill="#fff" opacity="0.41"/>
<circle cx="431.44" cy="525.83" r="2.79" fill="#fff" opacity="0.41"/>
<circle cx="431.44" cy="494.6" r="2.79" fill="#fff" opacity="0.41"/>
<rect x="357.26" y="447.19" width="81.43" height="25.66" fill="#fff" opacity="0.4"/>
<rect x="362.84" y="451.65" width="4.46" height="16.73" fill="#fff" opacity="0.4"/>
<rect x="371.76" y="451.65" width="21.2" height="5.58" fill="#fff" opacity="0.4"/>
<rect x="371.76" y="462.81" width="21.2" height="5.58" fill="#fff" opacity="0.4"/>
<g opacity="0.4">
<rect x="403" y="452.21" width="31.23" height="1.12" fill="#fff"/>
</g>
<g opacity="0.4">
<rect x="403" y="456.67" width="31.23" height="1.12" fill="#fff"/>
</g>
<rect x="357.26" y="410.38" width="81.43" height="25.66" fill="#fff" opacity="0.4"/>
<rect x="362.84" y="414.84" width="4.46" height="16.73" fill="#fff" opacity="0.4"/>
<rect x="371.76" y="414.84" width="21.2" height="5.58" fill="#fff" opacity="0.4"/>
<rect x="371.76" y="425.99" width="21.2" height="5.58" fill="#fff" opacity="0.4"/>
<g opacity="0.4">
<rect x="403" y="415.4" width="31.23" height="1.12" fill="#fff"/>
</g>
<g opacity="0.4">
<rect x="403" y="419.86" width="31.23" height="1.12" fill="#fff"/>
</g>
<rect x="357.26" y="373.56" width="81.43" height="25.66" fill="#fff" opacity="0.4"/>
<rect x="362.84" y="378.03" width="4.46" height="16.73" fill="#fff" opacity="0.4"/>
<rect x="371.76" y="378.03" width="21.2" height="5.58" fill="#fff" opacity="0.4"/>
<rect x="371.76" y="389.18" width="21.2" height="5.58" fill="#fff" opacity="0.4"/>
<g opacity="0.4">
<rect x="403" y="378.58" width="31.23" height="1.12" fill="#fff"/>
</g>
<g opacity="0.4">
<rect x="403" y="383.05" width="31.23" height="1.12" fill="#fff"/>
</g>
<circle cx="418.06" cy="391.97" r="2.79" fill="#fff" opacity="0.4"/>
<circle cx="430.33" cy="391.97" r="2.79" fill="#fff" opacity="0.4"/>
<circle cx="405.78" cy="391.97" r="2.79" fill="#fff" opacity="0.4"/>
<circle cx="418.06" cy="428.78" r="2.79" fill="#fff" opacity="0.4"/>
<circle cx="430.33" cy="428.78" r="2.79" fill="#fff" opacity="0.4"/>
<circle cx="405.78" cy="428.78" r="2.79" fill="#fff" opacity="0.4"/>
<circle cx="418.06" cy="465.6" r="2.79" fill="#fff" opacity="0.4"/>
<circle cx="430.33" cy="465.6" r="2.79" fill="#fff" opacity="0.4"/>
<circle cx="405.78" cy="465.6" r="2.79" fill="#fff" opacity="0.4"/>
<rect x="170.41" y="323.44" width="40.75" height="229.73" fill="#0071f2" data-primary="true"/>
<rect x="170.41" y="323.44" width="40.75" height="229.73" opacity="0.2"/>
<polygon points="211.16 323.44 329.37 323.37 329.37 553.16 211.16 553.16 211.16 323.44" fill="#0071f2" data-primary="true"/>
<rect x="215.59" y="553.17" width="117.13" height="20.08" fill="#0071f2" data-primary="true"/>
<rect x="215.59" y="553.17" width="117.13" height="20.08" opacity="0.2"/>
<rect x="170.31" y="553.23" width="45.74" height="20.08" fill="#0071f2" data-primary="true"/>
<rect x="170.31" y="553.23" width="45.74" height="20.08" opacity="0.3"/>
<rect x="222.18" y="337.53" width="95.94" height="32.19" fill="#fff" opacity="0.4"/>
<rect x="222.18" y="381.04" width="95.94" height="32.19" fill="#fff" opacity="0.4"/>
<rect x="228.75" y="386.64" width="5.26" height="20.99" fill="#fff" opacity="0.4"/>
<rect x="239.27" y="386.64" width="24.97" height="7" fill="#fff" opacity="0.4"/>
<rect x="239.27" y="400.63" width="24.97" height="7" fill="#fff" opacity="0.4"/>
<g opacity="0.4">
<rect x="276.06" y="387.48" width="36.8" height="1.12" fill="#fff"/>
</g>
<g opacity="0.4">
<rect x="276.06" y="393.08" width="36.8" height="1.12" fill="#fff"/>
</g>
<rect x="222.18" y="424.55" width="95.94" height="32.19" fill="#fff" opacity="0.4"/>
<rect x="228.75" y="430.14" width="5.26" height="20.99" fill="#fff" opacity="0.4"/>
<rect x="239.27" y="430.14" width="24.97" height="7" fill="#fff" opacity="0.4"/>
<rect x="239.27" y="444.14" width="24.97" height="7" fill="#fff" opacity="0.4"/>
<g opacity="0.4">
<rect x="276.06" y="430.99" width="36.8" height="1.12" fill="#fff"/>
</g>
<g opacity="0.4">
<rect x="276.06" y="436.58" width="36.8" height="1.12" fill="#fff"/>
</g>
<rect x="222.18" y="469.88" width="94.82" height="60.48" fill="#fff" opacity="0.4"/>
<g opacity="0.4">
<rect x="299.2" y="469.88" width="1.12" height="60.48" fill="#fff"/>
</g>
<g opacity="0.4">
<rect x="230.72" y="478.7" width="1.12" height="30.44" fill="#fff"/>
</g>
<g opacity="0.4">
<rect x="239.81" y="478.7" width="1.12" height="30.44" fill="#fff"/>
</g>
<g opacity="0.4">
<rect x="247.6" y="478.7" width="1.12" height="30.44" fill="#fff"/>
</g>
<g opacity="0.4">
<rect x="256.69" y="478.7" width="1.12" height="30.44" fill="#fff"/>
</g>
<g opacity="0.4">
<rect x="264.49" y="478.7" width="1.12" height="30.44" fill="#fff"/>
</g>
<g opacity="0.4">
<rect x="273.58" y="478.7" width="1.12" height="30.44" fill="#fff"/>
</g>
<g opacity="0.4">
<rect x="281.37" y="478.7" width="1.12" height="30.44" fill="#fff"/>
</g>
<g opacity="0.4">
<rect x="290.47" y="478.7" width="1.12" height="30.44" fill="#fff"/>
</g>
<rect x="231.27" y="515.24" width="61.05" height="7.56" fill="#fff" opacity="0.4"/>
<ellipse cx="308.56" cy="499.49" rx="3.25" ry="3.15" fill="#fff" opacity="0.4"/>
<ellipse cx="308.56" cy="517.13" rx="3.25" ry="3.15" fill="#fff" opacity="0.4"/>
<ellipse cx="308.56" cy="481.85" rx="3.25" ry="3.15" fill="#fff" opacity="0.4"/>
<circle cx="270.15" cy="542.63" r="5.02" fill="#fff" opacity="0.4"/>
<rect x="52.72" y="359.06" width="33.47" height="197.45" fill="#0071f2" data-primary="true"/>
<rect x="52.72" y="359.06" width="33.47" height="197.45" opacity="0.2"/>
<rect x="86.18" y="359.06" width="101.51" height="197.45" fill="#0071f2" data-primary="true"/>
<rect x="48.26" y="556.51" width="42.39" height="16.73" fill="#0071f2" data-primary="true"/>
<rect x="48.26" y="556.51" width="42.39" height="16.73" opacity="0.3"/>
<rect x="90.65" y="556.51" width="100.4" height="16.73" fill="#0071f2" data-primary="true"/>
<rect x="90.65" y="556.51" width="100.4" height="16.73" opacity="0.2"/>
<circle cx="136.94" cy="547.03" r="3.9" fill="#fff" opacity="0.4"/>
<rect x="96.22" y="484" width="81.43" height="53.55" fill="#fff" opacity="0.4"/>
<g opacity="0.4">
<rect x="162.29" y="484" width="1.12" height="53.55" fill="#fff"/>
</g>
<g opacity="0.4">
<rect x="103.48" y="491.81" width="1.12" height="26.95" fill="#fff"/>
</g>
<g opacity="0.4">
<rect x="111.28" y="491.81" width="1.12" height="26.95" fill="#fff"/>
</g>
<g opacity="0.4">
<rect x="117.98" y="491.81" width="1.12" height="26.95" fill="#fff"/>
</g>
<g opacity="0.4">
<rect x="125.79" y="491.81" width="1.12" height="26.95" fill="#fff"/>
</g>
<g opacity="0.4">
<rect x="132.48" y="491.81" width="1.12" height="26.95" fill="#fff"/>
</g>
<g opacity="0.4">
<rect x="140.29" y="491.81" width="1.12" height="26.95" fill="#fff"/>
</g>
<g opacity="0.4">
<rect x="146.98" y="491.81" width="1.12" height="26.95" fill="#fff"/>
</g>
<g opacity="0.4">
<rect x="154.79" y="491.81" width="1.12" height="26.95" fill="#fff"/>
</g>
<rect x="104.03" y="524.16" width="52.43" height="6.69" fill="#fff" opacity="0.4"/>
<circle cx="170.41" cy="510.22" r="2.79" fill="#fff" opacity="0.41"/>
<circle cx="170.41" cy="525.83" r="2.79" fill="#fff" opacity="0.41"/>
<circle cx="170.41" cy="494.6" r="2.79" fill="#fff" opacity="0.41"/>
<rect x="96.22" y="447.19" width="81.43" height="25.66" fill="#fff" opacity="0.4"/>
<rect x="101.8" y="451.65" width="4.46" height="16.73" fill="#fff" opacity="0.4"/>
<rect x="110.73" y="451.65" width="21.2" height="5.58" fill="#fff" opacity="0.4"/>
<rect x="110.73" y="462.81" width="21.2" height="5.58" fill="#fff" opacity="0.4"/>
<g opacity="0.4">
<rect x="141.96" y="452.21" width="31.23" height="1.12" fill="#fff"/>
</g>
<g opacity="0.4">
<rect x="141.96" y="456.67" width="31.23" height="1.12" fill="#fff"/>
</g>
<rect x="96.22" y="410.38" width="81.43" height="25.66" fill="#fff" opacity="0.4"/>
<rect x="101.8" y="414.84" width="4.46" height="16.73" fill="#fff" opacity="0.4"/>
<rect x="110.73" y="414.84" width="21.2" height="5.58" fill="#fff" opacity="0.4"/>
<rect x="110.73" y="425.99" width="21.2" height="5.58" fill="#fff" opacity="0.4"/>
<g opacity="0.4">
<rect x="141.96" y="415.4" width="31.23" height="1.12" fill="#fff"/>
</g>
<g opacity="0.4">
<rect x="141.96" y="419.86" width="31.23" height="1.12" fill="#fff"/>
</g>
<rect x="96.22" y="373.56" width="81.43" height="25.66" fill="#fff" opacity="0.4"/>
<rect x="101.8" y="378.03" width="4.46" height="16.73" fill="#fff" opacity="0.4"/>
<rect x="110.73" y="378.03" width="21.2" height="5.58" fill="#fff" opacity="0.4"/>
<rect x="110.73" y="389.18" width="21.2" height="5.58" fill="#fff" opacity="0.4"/>
<g opacity="0.4">
<rect x="141.96" y="378.58" width="31.23" height="1.12" fill="#fff"/>
</g>
<g opacity="0.4">
<rect x="141.96" y="383.05" width="31.23" height="1.12" fill="#fff"/>
</g>
<circle cx="157.02" cy="391.97" r="2.79" fill="#fff" opacity="0.4"/>
<circle cx="169.29" cy="391.97" r="2.79" fill="#fff" opacity="0.4"/>
<circle cx="144.75" cy="391.97" r="2.79" fill="#fff" opacity="0.4"/>
<circle cx="157.02" cy="428.78" r="2.79" fill="#fff" opacity="0.4"/>
<circle cx="169.29" cy="428.78" r="2.79" fill="#fff" opacity="0.4"/>
<circle cx="144.75" cy="428.78" r="2.79" fill="#fff" opacity="0.4"/>
<circle cx="157.02" cy="465.6" r="2.79" fill="#fff" opacity="0.4"/>
<circle cx="169.29" cy="465.6" r="2.79" fill="#fff" opacity="0.4"/>
<circle cx="144.75" cy="465.6" r="2.79" fill="#fff" opacity="0.4"/>
<ellipse cx="293.8" cy="360.63" rx="3.29" ry="3.5" fill="#fff" opacity="0.4"/>
<ellipse cx="308.26" cy="360.63" rx="3.29" ry="3.5" fill="#fff" opacity="0.4"/>
<ellipse cx="279.35" cy="360.63" rx="3.29" ry="3.5" fill="#fff" opacity="0.4"/>
<rect x="228.75" y="343.13" width="5.26" height="20.99" fill="#fff" opacity="0.4"/>
<rect x="239.27" y="343.13" width="24.97" height="7" fill="#fff" opacity="0.4"/>
<rect x="239.27" y="357.13" width="24.97" height="7" fill="#fff" opacity="0.4"/>
<g opacity="0.4">
<rect x="276.06" y="343.97" width="36.8" height="1.12" fill="#fff"/>
</g>
<g opacity="0.4">
<rect x="276.06" y="349.57" width="36.8" height="1.12" fill="#fff"/>
</g>
<ellipse cx="293.8" cy="404.13" rx="3.29" ry="3.5" fill="#fff" opacity="0.4"/>
<ellipse cx="308.26" cy="404.13" rx="3.29" ry="3.5" fill="#fff" opacity="0.4"/>
<ellipse cx="279.35" cy="404.13" rx="3.29" ry="3.5" fill="#fff" opacity="0.4"/>
<ellipse cx="293.8" cy="447.64" rx="3.29" ry="3.5" fill="#fff" opacity="0.4"/>
<ellipse cx="308.26" cy="447.64" rx="3.29" ry="3.5" fill="#fff" opacity="0.4"/>
<ellipse cx="279.35" cy="447.64" rx="3.29" ry="3.5" fill="#fff" opacity="0.4"/>
<path d="M751.17,230.81c0,16.29-13.66,29.5-30.5,29.5a30.7,30.7,0,0,1-25.85-13.85,28.62,28.62,0,0,1-4.65-15.65c0-16.29,13.66-29.5,30.5-29.5a30.92,30.92,0,0,1,21.44,8.52h0A28.91,28.91,0,0,1,751.17,230.81Z" fill="#fff"/>
<path d="M751.17,230.81c0,16.29-13.66,29.5-30.5,29.5a30.7,30.7,0,0,1-25.85-13.85s21.07,16.16,40.71,0c0,0,14.52-11.1,6.58-36.62A28.91,28.91,0,0,1,751.17,230.81Z" opacity="0.1"/>
<path d="M703.17,217.31s11-1.72,17.5-8.36a66.93,66.93,0,0,0,15.85,8.36s4.65,21.43-15.85,33.21C720.67,250.52,701.17,241.31,703.17,217.31Z" fill="#0071f2" data-primary="true"/>
<path d="M724.17,226.31a4,4,0,1,0-5.85,3.53l-2.15,6.75h8l-1.89-6.9A4,4,0,0,0,724.17,226.31Z" fill="#fff"/>
<rect x="699.49" y="393.74" width="5.37" height="37.57" fill="#999"/>
<polygon points="650.52 466.3 650.52 578.56 658.16 578.56 662.55 460.7 650.52 466.3" fill="#ccc"/>
<polygon points="697.34 444.2 697.34 561.21 704.99 561.21 709.15 438.83 697.34 444.2" fill="#ccc"/>
<polygon points="653.86 458.23 718.81 429.17 689.48 424.08 655.64 409.56 653.86 458.23" fill="#ccc"/>
<path d="M641.77,470.37l77-35.83v-5.37l-64.95,29.05S646.3,466.48,641.77,470.37Z" fill="#b3b3b3"/>
<path d="M679.09,296.06h40.53a4.55,4.55,0,0,1,4.55,4.55V368a0,0,0,0,1,0,0H679.09a0,0,0,0,1,0,0V296.06A0,0,0,0,1,679.09,296.06Z" fill="#999"/>
<rect x="420.39" y="391.6" width="11.81" height="208.25" fill="#999"/>
<rect x="426.83" y="391.6" width="5.37" height="208.25" opacity="0.1"/>
<rect x="456.89" y="392.13" width="11.81" height="172.29" fill="#999"/>
<rect x="463.33" y="392.13" width="5.37" height="172.29" opacity="0.1"/>
<rect x="714.52" y="391.6" width="11.81" height="208.25" fill="#999"/>
<rect x="720.96" y="391.6" width="5.37" height="208.25" opacity="0.1"/>
<rect x="744.57" y="378.18" width="11.81" height="186.25" fill="#999"/>
<rect x="751.01" y="378.18" width="5.37" height="186.25" opacity="0.1"/>
<path d="M673.73,296.06h40.53a4.55,4.55,0,0,1,4.55,4.55V368a0,0,0,0,1,0,0H673.73a0,0,0,0,1,0,0V296.06A0,0,0,0,1,673.73,296.06Z" fill="#b3b3b3"/>
<polygon points="407.51 388.38 462.9 360.49 772.51 360.49 735.99 388.38 407.51 388.38" fill="#ccc"/>
<path d="M527.73,583.75l-32.5,25.42s-13.65,12.15-1.85,19.66c0,0,17.18,10.74,31.13-7.51l19.38-31.64Z" fill="#0071f2" data-primary="true"/>
<path d="M491.24,620.25c8.05,8.67,20.57,6.86,28.45-1,3.7-3.78,7-8.33,10.52-12.3,3.08-3.62,7.51-8.78,10.65-12.28-2.81,3.74-7.06,9.09-10,12.81-3.41,4.12-6.73,8.66-10.42,12.54-8.21,8.11-21.45,9.88-29.19.27Z" opacity="0.2"/>
<path d="M498,607.86c6.44-.09,13.31,2.42,17.35,7.63a15.59,15.59,0,0,1,2.78,5.84l-.74-1.42a7.44,7.44,0,0,0-.8-1.37c-4-6.4-11.44-9.41-18.59-10.68Z" opacity="0.2"/>
<path d="M505.19,604.14c4.83-.65,11.72.93,12.89,6.4-2.61-4.61-8.09-5.41-12.89-6.4Z" opacity="0.2"/>
<path d="M509.49,599.85c4.82-.65,11.72.93,12.89,6.4-2.61-4.61-8.1-5.41-12.89-6.4Z" opacity="0.2"/>
<path d="M518.07,593.41c4.83-.65,11.72.93,12.9,6.39-2.62-4.6-8.1-5.4-12.9-6.39Z" opacity="0.2"/>
<path d="M535.79,568.18l-8.06,15.57s-3.32,4,1.26,6.48a8.52,8.52,0,0,0,4.06,1H541a3.61,3.61,0,0,0,2.94-1.51l9.76-13.62S540,570.82,535.79,568.18Z" fill="#f9b499"/>
<polygon points="533.95 534.35 537.47 544.99 542.81 529.78 533.95 534.35" fill="#f9b499"/>
<path d="M696.4,356.52c0,8.24-5.5,8.24-5.5,8.24l-15,5.37c-6.69,2.23-9.44,1.89-10.51,1.46a1.57,1.57,0,0,0-1.35.11.26.26,0,0,1-.09.05,11.53,11.53,0,0,1-3.82,1.75h0c-2.88.58-2.48-2.31-2.48-2.31a10.91,10.91,0,0,0,.21-1.54,9.9,9.9,0,0,0-5.8-9.36,26,26,0,0,0-4.78-1.69,6.38,6.38,0,0,0-3.07,0l-8.33,1.91H594l-38.38-1.1a98.23,98.23,0,0,1,12.59-65.48,86.8,86.8,0,0,1,8.82-12.47c.72-.84,1.14-1.27,1.14-1.27l2.37-3.43s32,2.14,32.36,1.07,22.16-14,22.16-14l30.76,13a10.53,10.53,0,0,1,3.59,2.6c6.61,6.84,11.81,23.16,11.81,23.16l14,46.16A31,31,0,0,1,696.4,356.52Z" fill="#0071f2" data-primary="true"/>
<path d="M661.42,329.11s-30.73,5-53.74.22c-.59-.12-1.17-.27-1.75-.43a89.29,89.29,0,0,0-27.74-2.78l-22.06-.18-1.09,7.3h36.87s12,.39,21.7,3.61c0,0,9.66,3.22,29,1.07l21.82-2.66Z" fill="#2f2e41" data-secondary="true"/>
<path d="M669.43,279.34c-20.39,2.59-56.89,14.57-56.89,14.57-8.59-6.44-35.49-12.47-35.49-12.47.72-.84,1.14-1.27,1.14-1.27l2.37-3.43s32,2.14,32.36,1.07,22.16-14,22.16-14l30.76,13A10.53,10.53,0,0,1,669.43,279.34Z" opacity="0.2"/>
<path d="M605.73,278.44c-.41.1-.82.2-1.24.26-7.26,1.28-14.75-1.87-20.74-8A43.14,43.14,0,0,1,573,250.86c-4.58-18.57,2.63-36.33,16.13-39.66s28.13,9,32.72,27.59S619.23,275.12,605.73,278.44Z" fill="#f9b499"/>
<ellipse cx="624.88" cy="239.17" rx="1.61" ry="3.22" fill="none" stroke="red" stroke-miterlimit="10" stroke-width="0.75"/>
<path d="M637.23,234.87s17.17,9.45-10.74,18.14a16,16,0,0,1-.53-3.65,15.5,15.5,0,0,1,.53-4.54l-8.58-4.36s-4.67.85-7.18-4.51c0,0-8.93,0-7.85-6.45,0,0-6.44,4.3-8.59-1.07,0,0-9.69,6.88-19.33-4.61,0,0-4.29,7.83-3,21,0,0-6.35,5.08-9.93.38a6.46,6.46,0,0,1-1.28-3.77,5.55,5.55,0,0,1,3.22-5.48s-7.77-2.9-7.57-9.29a10.39,10.39,0,0,1,1.42-4.67s1.61-4,7.62-2.31h0a18.89,18.89,0,0,1,3.11,1.24s-8.22-17.26,3.4-28.49c0,0,19.14-19.82,26.65,4.87,0,0,6.56-10.14,17.06-7.62h0a15.76,15.76,0,0,1,2.25.72s7.51,2,6.44,14.1c0,0,9.66-8.28,18.25,1.38,0,0,6.44,7.89,0,16.28C642.6,222.17,645.82,229.5,637.23,234.87Z" fill="#2f2e41" data-secondary="true"/>
<path d="M576,221.72s-3.22-10.46,6.44-16.9c0,0,6.93-4.52,16.49,1.45a23.89,23.89,0,0,1,2.73,2.07,16.44,16.44,0,0,0,10.59,4.11s11-.47,12.59,12.05c0,0-12.34-10.72-21.47-5.54,0,0-4.83-15.22-17.71-10.92C585.7,208,578.19,210.18,576,221.72Z" opacity="0.2"/>
<path d="M565.41,219.68c-5.22.93-9,7-9,7a10.39,10.39,0,0,1,1.42-4.67S559.4,218,565.41,219.68Z" opacity="0.2"/>
<path d="M637.23,234.87s17.17,9.45-10.74,18.14a7.54,7.54,0,0,1-.53-3.65,7.64,7.64,0,0,1,.53-2.07l4.3-6.83h0c3.22-1.93,3.22-6.66,3.22-6.66a10.36,10.36,0,0,0,4.62-3.63,8.72,8.72,0,0,0,1.1-8.24c-2.23-5.68-8.94-4.09-8.94-4.09,2.14-16-7.52-10.85-7.52-10.85-1-14.52-7.22-17.15-7.61-17.3a15.76,15.76,0,0,1,2.25.72s7.51,2,6.44,14.1c0,0,9.66-8.28,18.25,1.38,0,0,6.44,7.89,0,16.28C642.6,222.17,645.82,229.5,637.23,234.87Z" opacity="0.2"/>
<path d="M644.74,266l-26.83,22.77c-4.3,3.45-6.45.85-6.45.85l-1.19-1.87-5.78-9.05c20.39-4.65,18.66-31.41,18.66-31.41h3.34a17.67,17.67,0,0,0,2.15,11.2c3.91-1.57,9-1.42,11.4-1.23a14.93,14.93,0,0,1,2.89.49C651.56,260.15,644.74,266,644.74,266Z" fill="#f9b499"/>
<path d="M644.74,266l-26.83,22.77c-4.3,3.45-6.45.85-6.45.85l-1.19-1.87c11.69-5.09,23-18.83,23-18.83,4.06-5.95-2.64-9.53-4.25-10.28a.16.16,0,0,1,0-.29c3.85-1.42,8.68-1.27,11-1.09a14.93,14.93,0,0,1,2.89.49C651.56,260.15,644.74,266,644.74,266Z" fill="#f7a48b"/>
<path d="M604.49,278.7l3.07,4.81s18.65-10.53,15-26.36C622.6,257.15,621.13,275.3,604.49,278.7Z" fill="#f7a48b"/>
<path d="M584.63,277.81a55.48,55.48,0,0,1,18.78,6.51" fill="none" stroke="red" stroke-miterlimit="10" stroke-width="0.75"/>
<path d="M696.4,356.52c0,8.24-5.5,8.24-5.5,8.24l-15,5.37c-6.69,2.23-9.44,1.89-10.51,1.46a1.57,1.57,0,0,0-1.35.11c.35-.25,1.68-1.46-.09-5l-5.62-8.42a1.12,1.12,0,0,1,.39-1.6,1.06,1.06,0,0,1,.54-.14,1.13,1.13,0,0,1,.92.46l7.13,9.93s1.08,4.29,15-2.15C682.31,364.76,694.38,360.08,696.4,356.52Z" opacity="0.2"/>
<path d="M660.1,373.5h0c-2.88.58-2.48-2.31-2.48-2.31a10.91,10.91,0,0,0,.21-1.54,9.9,9.9,0,0,0-5.8-9.36,26,26,0,0,0-4.78-1.69s8.23-3.51,12.52,7.22C659.77,365.83,661.09,370.47,660.1,373.5Z" opacity="0.2"/>
<path d="M663,347.59s-14,5.88-18.81,11l-8.33,1.91H594l-38.38-1.1a98.23,98.23,0,0,1,12.59-65.48c.3,0,8.88,2.15,17.47,32.21,0,0,8.52,31.81,22,30.4h23.49s21.09.73,21.09-13.23V321.82s.65-8.42,4.09-3.13l10.93,22.45S669.43,345.44,663,347.59Z" opacity="0.2"/>
<path d="M666.21,282.1c-8.42,6.71-12.77,17.28-12.88,27.91-.1-1.33-.27-2.68-.25-4,0-9.45,4.89-19.05,13.13-23.89Z" opacity="0.2"/>
<path d="M626.49,348.12h0a.54.54,0,0,1-.52-.55L627,315.36c0-21.29,5.34-36.51,5.4-36.66a.53.53,0,0,1,.68-.32.54.54,0,0,1,.33.68c-.05.15-5.34,15.2-5.34,36.32L627,347.6A.54.54,0,0,1,626.49,348.12Z" fill="#2f2e41" data-secondary="true"/>
<path d="M599.66,351.34h0a.54.54,0,0,1-.52-.55l1.07-31.13a207.59,207.59,0,0,1,2.7-33.9.53.53,0,0,1,.62-.43.54.54,0,0,1,.43.63,207.15,207.15,0,0,0-2.67,33.72l-1.08,31.15A.54.54,0,0,1,599.66,351.34Z" fill="#2f2e41" data-secondary="true"/>
<g opacity="0.2">
<path d="M626.49,348.12h0a.54.54,0,0,1-.52-.55L627,315.36c0-21.29,5.34-36.51,5.4-36.66a.53.53,0,0,1,.68-.32.54.54,0,0,1,.33.68c-.05.15-5.34,15.2-5.34,36.32L627,347.6A.54.54,0,0,1,626.49,348.12Z"/>
<path d="M599.66,351.34h0a.54.54,0,0,1-.52-.55l1.07-31.13a207.59,207.59,0,0,1,2.7-33.9.53.53,0,0,1,.62-.43.54.54,0,0,1,.43.63,207.15,207.15,0,0,0-2.67,33.72l-1.08,31.15A.54.54,0,0,1,599.66,351.34Z"/>
</g>
<path d="M692,395.89c0,.17,0,8.76-2.13,25.76l-.35,2.43a60.81,60.81,0,0,0-.51,7.27c-.07,3.84-2.57,11.15-21.3,8.21.48-.83.94-1.65,1.35-2.49.13-.23.24-.45.36-.68,1.57-3,3.69-7.58,4.35-11.51,0,0-59-5.37-78.37-12.89,0,0-28.3-11.8-38.85-8.05l-8.38,7s-7.51-2.15,3.22-15Z" fill="#0071f2" data-primary="true"/>
<path d="M673.73,424.88s13.8.92,13.29,7a4.08,4.08,0,0,1-1.61,2.85c-1.84,1.41-6.25,3.29-16.15,1.89A63.05,63.05,0,0,0,673.73,424.88Z" opacity="0.2"/>
<path d="M549.77,409.56s-6.33-4,6.75-5.62Z" opacity="0.2"/>
<path d="M673.73,424.88a54,54,0,0,1-4.35,11.51c-.12.23-.23.45-.36.68-.22.43-.44.82-.62,1.15s-.47.89-.73,1.34C654.37,463,626.11,484,614.61,491.93a12.19,12.19,0,0,0-5.27,9.22C607,538,590,569.79,590,569.79c-3.61,5.17-9,7.66-15,8.46-19.1,2.58-45.12-11.68-45.12-11.68l14-39.72c11.8-44,23.61-56.89,23.61-56.89L594,414.84l1.37-2.85C614.69,419.51,673.73,424.88,673.73,424.88Z" fill="#2f2e41" data-secondary="true"/>
<path d="M673.73,424.88a54,54,0,0,1-4.35,11.51c-.12.23-.23.45-.36.68-.22.43-.44.82-.62,1.15s-.47.89-.73,1.34C654.37,463,626.11,484,614.61,491.93a12.19,12.19,0,0,0-5.27,9.22C607,538,590,569.79,590,569.79c-3.61,5.17-9,7.66-15,8.46,20-25.72,31.27-83,31.27-83-.89-13.33,38.47-47.86,38.47-47.86,15-15-4.29-19.32-4.29-19.32-17.27-2.73-39.92-10.85-46.46-13.26l1.37-2.85C614.69,419.51,673.73,424.88,673.73,424.88Z" opacity="0.2"/>
<path d="M575,454.29l-33.31,13.52,13,26s-5.54,16.19-11.4,35.76c0,0-13.42,9.12-27.37,8.05,0,0-11.81-30.06-18.25-61.19,0,0-8.59-18.25,6.44-30.06l43.46-35.17,8.93-7.23s6.65-4.83,38.85,8.05Z" fill="#2f2e41" data-secondary="true"/>
<path d="M533.24,557,512,573.42a27.32,27.32,0,0,1-6.8,3.93c-3.21,1.25-7.85,4-6.84,9.17a8.46,8.46,0,0,0,5.07,6.1c2.54,1.06,6.58,1.77,12.53.37l11.8-9.24,7.47-14.54-5.32-2.64Z" fill="#0071f2" data-primary="true"/>
<path d="M533.24,557,512,573.42a27.32,27.32,0,0,1-6.8,3.93c-3.21,1.25-7.85,4-6.84,9.17a8.46,8.46,0,0,0,5.07,6.1c2.54,1.06,6.58,1.77,12.53.37l11.8-9.24,7.47-14.54-5.32-2.64Z" opacity="0.2"/>
<path d="M575,454.29l-33.31,13.52,13,26a370.36,370.36,0,0,1-11.89,36s-12.93,8.88-26.88,7.81c39.71-3.22,20.78-67.22,20.78-67.22-4.38-9.78,2.18-12.65,6.17-13.48a54,54,0,0,0,7.51-2.12l10.05-3.7a29.53,29.53,0,0,0,16.92-15.53,27.2,27.2,0,0,0,2.23-8.31,14.25,14.25,0,0,0-10.3-15c-8.42-2.48-16.86-1.84-21.71-1.1l8.93-7.23s6.65-4.83,38.85,8.05Z" opacity="0.2"/>
<path d="M498.19,585.16c8,4.49,17.84,3.92,26,.25,1.19-.51,2.33-1.14,3.53-1.66-1.07.73-2.17,1.45-3.3,2.13-8,4.53-18.78,5.1-26.24-.72Z" opacity="0.2"/>
<path d="M510.28,574.64c4.14,1.84,12.18,6.84,12.1,11.9-.72-2.81-3.3-4.59-5.35-6.46s-4.5-3.57-6.75-5.44Z" opacity="0.2"/>
<path d="M515.93,570.37c3.09.44,5.52,3.24,6.45,6.1-2.23-2.05-4-4.27-6.45-6.1Z" opacity="0.2"/>
<path d="M520,567.26a9.57,9.57,0,0,1,6.62,6.16c-2.18-2.19-4.35-4-6.62-6.16Z" opacity="0.2"/>
<path d="M524.52,563.73a11.81,11.81,0,0,1,5.36,6.61,29,29,0,0,1-5.36-6.61Z" opacity="0.2"/>
<rect x="407.51" y="388.38" width="328.48" height="7.51" fill="#b3b3b3"/>
<polygon points="735.99 388.38 735.99 395.89 772.48 366.91 772.51 360.49 735.99 388.38" fill="#999"/>
<path d="M493.38,369.06h98.07l-7.33-63.75a5.59,5.59,0,0,0-5.56-5h-90a3,3,0,0,0-2.93,3.31Z" fill="#0071f2" data-primary="true"/>
<path d="M591.46,369.06H493.38l-7.77-65.4a3,3,0,0,1,2.94-3.31h90a5.59,5.59,0,0,1,5.56,5Z" fill="#fff" opacity="0.3"/>
<polygon points="569.16 300.35 493.38 365.83 491.75 353.16 553.14 300.35 569.16 300.35" fill="#fff" opacity="0.3"/>
<path d="M502.7,369.06l79.54-67.32a5.93,5.93,0,0,1,1.88,3.57l.39,3.34-71.09,60.41Z" fill="#fff" opacity="0.3"/>
<rect x="493.38" y="369.06" width="94.46" height="6.44" fill="#0071f2" data-primary="true"/>
<rect x="587.85" y="369.06" width="29.49" height="6.44" fill="#0071f2" data-primary="true"/>
<rect x="587.85" y="369.06" width="29.49" height="6.44" opacity="0.2"/>
<polygon points="405.36 377.64 452.01 377.64 485.59 358.06 445.48 358.06 405.36 377.64" fill="#fff"/>
<rect x="405.36" y="377.64" width="46.65" height="4.65" fill="#e6e6e6"/>
<polygon points="485.59 358.06 485.59 363.92 452.01 382.29 452.01 377.64 485.59 358.06" fill="#ccc"/>
<polygon points="485.59 358.06 485.59 363.92 452.01 382.29 452.01 377.64 485.59 358.06" opacity="0.1"/>
<path d="M644.18,358.58s-13.46,1.87-20.94,12.08c0,0-10,9.15-.18,7.53,0,0,.47,4.68,8.39,1.53,0,0,1.37,3.31,10-1.53,0,0,8.65-4.84,16.16-7C657.62,371.2,660.8,358.84,644.18,358.58Z" fill="#f9b499"/>
<path d="M631.61,368a40.32,40.32,0,0,1-8.55,10.21A40.49,40.49,0,0,1,631.61,368Z" fill="#f7a48b"/>
<path d="M631.45,379.72a24.81,24.81,0,0,1,6.84-7.82,24.56,24.56,0,0,1-6.84,7.82Z" fill="#f7a48b"/>
<ellipse cx="624.35" cy="239.7" rx="6.44" ry="8.05" fill="#f9b499"/>
<path d="M626.49,253s12.2-4.93,24.25-3.72a26.56,26.56,0,0,1,17.33,9.17c4.85,5.6,11.54,15.1,4.38,18.3a8.59,8.59,0,0,1-7.29-.33c-5-2.49-17.92-6.91-47.79,12.65L644.74,266s6.48-6.48-3.5-8.53a13.52,13.52,0,0,0-2.62-.25,46.13,46.13,0,0,0-10,1.27S626.49,255.05,626.49,253Z" fill="#0071f2" data-primary="true"/>
<path d="M626.49,253s12.2-4.93,24.25-3.72a26.56,26.56,0,0,1,17.33,9.17c4.85,5.6,11.54,15.1,4.38,18.3a8.59,8.59,0,0,1-7.29-.33c-5-2.49-17.92-6.91-47.79,12.65L644.74,266s6.48-6.48-3.5-8.53a13.52,13.52,0,0,0-2.62-.25,46.13,46.13,0,0,0-10,1.27S626.49,255.05,626.49,253Z" fill="#fff" opacity="0.3"/>
<path d="M659.77,258.49c-5.73,6.95-13.48,12.06-21.25,16.49-1.15.58-2.28,1.2-3.44,1.76,8.36-5.91,17-11.41,24.69-18.25Z" fill="#fff" opacity="0.3"/>
<path d="M669.43,262.78c-4.81,5.33-11.95,8.19-18.91,9.35,6.47-2.57,13.26-5.24,18.91-9.35Z" fill="#fff" opacity="0.3"/>
<path d="M611.46,289.62c-4.43-2.66-21.36-6.8-27.08-8.15A23.68,23.68,0,0,0,581,281c-4.81-.45-3.91-3.16-3.91-3.16,0-4.29,6.64-7.08,6.64-7.08,6,6.1,13.48,9.25,20.74,8Z" fill="#0071f2" data-primary="true"/>
<path d="M611.46,289.62c-4.43-2.66-21.36-6.8-27.08-8.15A23.68,23.68,0,0,0,581,281c-4.81-.45-3.91-3.16-3.91-3.16,0-4.29,6.64-7.08,6.64-7.08,6,6.1,13.48,9.25,20.74,8Z" fill="#fff" opacity="0.3"/>
<circle cx="536.86" cy="335.24" r="8.05" fill="#fff"/>
<rect x="268.17" y="99.31" width="271" height="154" rx="4.76" fill="#e6e6e6"/>
<path d="M539.17,104.07v18.24h-271V104.07a4.76,4.76,0,0,1,4.76-4.76H534.41A4.76,4.76,0,0,1,539.17,104.07Z" fill="#0071f2" data-primary="true"/>
<rect x="419.17" y="106.31" width="107" height="9" rx="4.5" fill="#fff"/>
<circle cx="282.67" cy="109.81" r="3.5" fill="#fff"/>
<circle cx="299.67" cy="109.81" r="3.5" fill="#fff"/>
<circle cx="317.67" cy="109.81" r="3.5" fill="#fff"/>
<circle cx="368.17" cy="144.31" r="10.5" fill="#0071f2" data-primary="true"/>
<circle cx="367.91" cy="141.42" r="2.36" fill="#fff"/>
<path d="M364.13,149h8.15a.51.51,0,0,0,.51-.63,4.24,4.24,0,0,0-4.62-3.57s-3.31-.47-4.55,3.52A.53.53,0,0,0,364.13,149Z" fill="#fff"/>
<circle cx="363.17" cy="226.31" r="10.5" fill="#0071f2" data-primary="true"/>
<circle cx="362.91" cy="223.42" r="2.36" fill="#fff"/>
<path d="M359.13,231h8.15a.51.51,0,0,0,.51-.63,4.24,4.24,0,0,0-4.62-3.57s-3.31-.47-4.55,3.52A.53.53,0,0,0,359.13,231Z" fill="#fff"/>
<circle cx="472.17" cy="149.31" r="10.5" fill="#0071f2" data-primary="true"/>
<circle cx="471.91" cy="146.42" r="2.36" fill="#fff"/>
<path d="M468.13,154h8.15a.51.51,0,0,0,.51-.63,4.24,4.24,0,0,0-4.62-3.57s-3.31-.47-4.55,3.52A.53.53,0,0,0,468.13,154Z" fill="#fff"/>
<circle cx="508.17" cy="183.31" r="10.5" fill="#0071f2" data-primary="true"/>
<circle cx="507.91" cy="180.42" r="2.36" fill="#fff"/>
<path d="M504.13,188h8.15a.51.51,0,0,0,.51-.63,4.24,4.24,0,0,0-4.62-3.57s-3.31-.47-4.55,3.52A.53.53,0,0,0,504.13,188Z" fill="#fff"/>
<circle cx="467.17" cy="231.31" r="11.5" fill="#0071f2" data-primary="true"/>
<circle cx="466.88" cy="228.15" r="2.59" fill="#fff"/>
<path d="M462.74,236.48h8.93a.56.56,0,0,0,.56-.69,4.66,4.66,0,0,0-5.06-3.91s-3.63-.51-5,3.86A.58.58,0,0,0,462.74,236.48Z" fill="#fff"/>
<circle cx="311.17" cy="182.31" r="12.5" fill="#0071f2" data-primary="true"/>
<circle cx="310.86" cy="178.87" r="2.81" fill="#fff"/>
<path d="M306.36,187.93h9.7a.61.61,0,0,0,.61-.75,5,5,0,0,0-5.5-4.25s-3.94-.56-5.41,4.19A.63.63,0,0,0,306.36,187.93Z" fill="#fff"/>
<rect x="420.17" y="181.81" width="77.5" height="1" fill="#2f2e41" data-secondary="true"/>
<rect x="323.67" y="181.81" width="56.5" height="1" fill="#2f2e41" data-secondary="true"/>
<rect x="383.78" y="146.86" width="1" height="20.4" transform="translate(0.88 316.25) rotate(-44.78)" fill="#2f2e41" data-secondary="true"/>
<rect x="365.54" y="208.8" width="28.05" height="1" transform="translate(-28.75 354.77) rotate(-48.48)" fill="#2f2e41" data-secondary="true"/>
<rect x="416.51" y="164.55" width="48.31" height="1" transform="translate(-26.77 219.2) rotate(-27.14)" fill="#2f2e41" data-secondary="true"/>
<rect x="435.17" y="185.32" width="1" height="51.91" transform="translate(11.09 444.04) rotate(-54.6)" fill="#2f2e41" data-secondary="true"/>
<circle cx="400.17" cy="182.31" r="20" fill="#0071f2" data-primary="true"/>
<circle cx="399.67" cy="176.81" r="4.5" fill="#fff"/>
<path d="M392.47,191.31H408a1,1,0,0,0,1-1.21c-.51-2.3-2.35-7.06-8.81-6.79,0,0-6.31-.9-8.66,6.7A1,1,0,0,0,392.47,191.31Z" fill="#fff"/>
</svg>